{"title":"Linkin Park - Road To RevolutionLive At Milton Keynes [2008][Roc","uid":5691720,"size":1376440062,"categoryP":"other","categoryS":"other","magnet":"?xt=urn:btih:4dd2b0620e3f00fd1befbeeb3776b16c6f1d94ae&amp;dn=Linkin+Park+-+Road+To+RevolutionLive+At+Milton+Keynes+%5B2008%5D%5BRoc&amp;tr=udp%3A%2F%2Ftracker.openbittorrent.com%3A80&amp;tr=udp%3A%2F%2Fopen.demonii.com%3A1337&amp;tr=udp%3A%2F%2Ftracker.coppersurfer.tk%3A6969&amp;tr=udp%3A%2F%2Fexodus.desync.com%3A6969","seeders":0,"leechers":1,"uploader":"vicky89","files":8,"time":1279116346,"description":"Linkin.Park.Road.To.Revolution.Live.At.Milton.Keynes.2008.DVDRip-MS.mp4\n      Format : MPEG-4\n      Format profile : Base Media\n      Codec ID : isom\n      File size : 1.12 GiB\n      Duration : 1h 25mn\n      Overall bit rate : 1 876 Kbps\n    \n   Video #1\n      Format : AVC\n      Format/Info : Advanced Video Codec\n      Format profile : &lt;a class=&quot;__cf_email__&quot; href=&quot;/cdn-cgi/l/email-protection&quot; data-cfemail=&quot;a4eccdc3cce4e8918a95&quot;&gt;[email&amp;#160;protected]&lt;/a&gt;&lt;script cf-hash='f9e31' type=&quot;text/javascript&quot;&gt;\n/* &lt;![CDATA[ */!function(){try{var t=&quot;currentScript&quot;in document?document.currentScript:function(){for(var t=document.getElementsByTagName(&quot;script&quot;),e=t.length;e--;)if(t[e].getAttribute(&quot;cf-hash&quot;))return t[e]}();if(t&amp;&amp;t.previousSibling){var e,r,n,i,c=t.previousSibling,a=c.getAttribute(&quot;data-cfemail&quot;);if(a){for(e=&quot;&quot;,r=parseInt(a.substr(0,2),16),n=2;a.length-n;n+=2)i=parseInt(a.substr(n,2),16)^r,e+=String.fromCharCode(i);e=document.createTextNode(e),c.parentNode.replaceChild(e,c)}}}catch(u){}}();/* ]]&gt; */&lt;/script&gt;\n      Format settings, CABAC : Yes\n      Format settings, ReFrames : 6 frames\n      Codec ID : avc1\n      Codec ID/Info : Advanced Video Coding\n      Duration : 1h 25mn\n      Bit rate mode : Variable\n      Bit rate : 1 552 Kbps\n      Maximum bit rate : 4 696 Kbps\n      Width : 852 pixels\n      Height : 480 pixels\n      Display aspect ratio : 16/9\n      Frame rate mode : Constant\n      Frame rate : 23.976 fps\n      Resolution : 24 bits\n      Colorimetry : 4:2:0\n      Scan type : Progressive\n      Bits/(Pixel*Frame) : 0.158\n      Stream size : 946 MiB (83%)\n      Writing library : x264 core 57\n     \n   Audio #2\n      Format : AAC\n      Format/Info : Advanced Audio Codec\n      Format version : Version 4\n      Format profile : LC\n      Format settings, SBR : No\n      Codec ID : 40\n      Duration : 1h 25mn\n      Bit rate mode : Variable\n      Bit rate : 320 Kbps\n      Maximum bit rate : 350 Kbps\n      Channel(s) : 6 channels\n      Channel positions : Front: L C R, Rear: L R, LFE\n      Sampling rate : 48.0 KHz\n      Resolution : 16 bits\n      Stream size : 195 MiB (17%)","torrent":{"xt":"urn:btih:4dd2b0620e3f00fd1befbeeb3776b16c6f1d94ae","amp;dn":"Linkin+Park+-+Road+To+RevolutionLive+At+Milton+Keynes+%5B2008%5D%5BRoc","amp;tr":["udp%3A%2F%2Ftracker.openbittorrent.com%3A80","udp%3A%2F%2Fopen.demonii.com%3A1337","udp%3A%2F%2Ftracker.coppersurfer.tk%3A6969","udp%3A%2F%2Fexodus.desync.com%3A6969"],"infoHash":"4dd2b0620e3f00fd1befbeeb3776b16c6f1d94ae","infoHashBuffer":{"type":"Buffer","data":[77,210,176,98,14,63,0,253,27,239,190,235,55,118,177,108,111,29,148,174]},"announce":[],"urlList":[]}}